<?xml version="1.0" standalone="no"?>
<!DOCTYPE svg PUBLIC "-//W3C//DTD SVG 20010904//EN"
 "http://www.w3.org/TR/2001/REC-SVG-20010904/DTD/svg10.dtd">
<svg version="1.0" xmlns="http://www.w3.org/2000/svg"
 width="632.000000pt" height="632.000000pt" viewBox="0 0 632.000000 632.000000"
 preserveAspectRatio="xMidYMid meet">
<metadata>
Created by potrace 1.14, written by Peter Selinger 2001-2017
</metadata>
<g transform="translate(0.000000,632.000000) scale(0.100000,-0.100000)"
fill="#000000" stroke="none">
<path d="M2255 6289 c-93 -13 -160 -30 -225 -56 -8 -4 -17 -7 -20 -8 -19 -5
-125 -64 -175 -97 -51 -34 -218 -194 -250 -240 -22 -31 -47 -74 -58 -100 -6
-16 -15 -28 -19 -28 -4 0 -8 -8 -8 -18 0 -10 -4 -22 -9 -28 -5 -5 -19 -38 -31
-74 -12 -36 -24 -72 -28 -80 -3 -8 -7 -19 -8 -25 -1 -5 -3 -12 -4 -15 -5 -14
-11 -51 -16 -105 -7 -70 -23 -92 -73 -100 -141 -23 -270 -90 -363 -190 -99
-106 -136 -199 -144 -362 -9 -185 -10 -1287 -1 -1391 15 -166 41 -221 124
-262 81 -39 86 -41 168 -45 44 -2 82 -4 85 -4 3 -1 5 -658 5 -1461 l0 -1461
61 -58 61 -58 1450 1 1451 1 46 50 c28 29 51 66 57 90 6 22 12 129 12 238 1
191 1 198 21 202 12 3 113 7 226 10 357 9 410 21 563 122 130 87 236 211 315
369 l40 82 0 1138 0 1139 -31 65 c-59 123 -102 185 -187 270 -108 107 -127
121 -225 169 -118 59 -184 66 -692 80 l-32 1 2 73 c4 95 14 112 79 127 187 44
307 196 306 387 -1 32 -7 75 -14 96 -7 20 -13 40 -13 42 0 3 -10 26 -22 50
-44 87 -121 146 -242 186 -67 22 -102 51 -96 81 4 18 -9 84 -27 138 -27 80
-102 195 -179 272 -148 151 -276 204 -490 202 -104 -1 -131 -4 -205 -29 -47
-16 -93 -29 -103 -29 -13 -1 -31 23 -62 82 -86 161 -167 260 -296 359 -87 67
-263 157 -324 166 -11 1 -24 5 -30 8 -9 6 -59 17 -110 25 -48 8 -214 10 -260
3z"/>
</g>
</svg>
